<svg xmlns="http://www.w3.org/2000/svg"  viewBox="0 0 100 100" width="100px" height="100px"><path fill="#4792dd" d="M18.122,70.04l0.084-40.344c0.012-5.796,6.843-10.822,12.639-10.797l39.088,0.167 c5.796,0.025,10.857,5.671,10.881,11.467l0.167,40.344c0.024,5.796-6.341,11.432-12.137,11.383l-39.758-0.335 C23.291,81.876,18.11,75.835,18.122,70.04z"/><path d="M69,83H30c-7.18,0-13-5.82-13-13V31c0-7.18,5.82-13,13-13h39c7.18,0,13,5.82,13,13v39C82,77.18,76.18,83,69,83z M19,31v39 c0,6.075,4.925,11,11,11h39c6.075,0,11-4.925,11-11V31c0-6.075-4.925-11-11-11H30C23.925,20,19,24.925,19,31z"/><path d="M66.162,78H32.837C26.852,78,22,73.148,22,67.163V33.837C22,27.852,26.852,23,32.837,23H66.5c0.276,0,0.5,0.224,0.5,0.5 S66.776,24,66.5,24H32.837C27.404,24,23,28.404,23,33.837v33.325C23,72.595,27.405,77,32.838,77h33.325 C71.596,77,76,72.596,76,67.163V48.5c0-0.276,0.224-0.5,0.5-0.5s0.5,0.224,0.5,0.5v18.662C77,73.148,72.148,78,66.162,78z M76.5,45.579c-0.276,0-0.5-0.224-0.5-0.5v-4c0-0.276,0.224-0.5,0.5-0.5s0.5,0.224,0.5,0.5v4C77,45.356,76.776,45.579,76.5,45.579z M76.5,39.579c-0.276,0-0.5-0.224-0.5-0.5v-2c0-0.276,0.224-0.5,0.5-0.5s0.5,0.224,0.5,0.5v2C77,39.356,76.776,39.579,76.5,39.579z"/><path fill="#fdfcef" d="M63.536,39.913c-2.617-3.264-7.307-5.449-12.677-5.449c-6.448,0-11.922,3.145-13.988,7.537 c-4.856,1.69-8.143,6.725-7.063,12.356c0.796,4.154,4.094,7.527,8.228,8.422c3.055,0.66,5.939,0.013,8.235-1.465l0.665,6.589 c0.07,0.696,0.967,0.934,1.373,0.364l5.36-7.535c0.129,0.007,0.251,0.038,0.382,0.038c3.286,0,6.099-1.953,7.392-4.754 c0.256,0.025,0.503,0.077,0.765,0.077c4.505,0,8.158-3.653,8.158-8.158C70.367,43.885,67.405,40.55,63.536,39.913z"/><path d="M47.696,69.085c-0.108,0-0.219-0.014-0.328-0.043c-0.511-0.135-0.876-0.563-0.93-1.089l-0.587-5.81 c-2.399,1.316-5.181,1.716-7.921,1.123c-4.32-0.935-7.782-4.478-8.614-8.816c-1.065-5.553,1.954-10.923,7.193-12.852 c2.268-4.575,8.001-7.635,14.35-7.635c5.277,0,10.101,2.048,12.947,5.489c4.102,0.767,7.06,4.303,7.061,8.481 c0,4.774-3.884,8.658-8.658,8.658c-0.161,0-0.317-0.017-0.473-0.037c-1.479,2.875-4.455,4.714-7.685,4.714 c-0.05,0-0.098-0.003-0.146-0.007l-5.189,7.294C48.475,68.895,48.096,69.085,47.696,69.085z M46.686,60.451l0.747,7.401 c0.017,0.161,0.14,0.21,0.192,0.224c0.052,0.016,0.184,0.033,0.277-0.1l5.519-7.757l0.273,0.013 c0.072,0.003,0.143,0.013,0.212,0.022c0.048,0.006,0.096,0.015,0.146,0.015c2.963,0,5.686-1.752,6.938-4.463l0.148-0.322 l0.354,0.034c0.095,0.009,0.189,0.021,0.284,0.034c0.143,0.02,0.286,0.04,0.434,0.04c4.223,0,7.658-3.435,7.658-7.658 c-0.001-3.75-2.697-6.916-6.412-7.528l-0.189-0.031l-0.119-0.149c-2.642-3.295-7.235-5.262-12.287-5.262 c-6.056,0-11.496,2.914-13.536,7.25l-0.089,0.19l-0.199,0.069c-4.888,1.701-7.721,6.659-6.736,11.79 c0.758,3.95,3.909,7.176,7.843,8.027c2.744,0.593,5.537,0.098,7.858-1.396L46.686,60.451z"/></svg>